/* XPM */
static char * C:\Users\Livio\Desktop\litecoin\share\pixmaps\bitcoin64_xpm[] = {
"64 64 529 2",
"  	c None",
". 	c #6C6D70",
"+ 	c #6C6D6F",
"@ 	c #6B6D70",
"# 	c #6C6D71",
"$ 	c #6A6C6F",
"% 	c #6D6E71",
"& 	c #6C6C70",
"* 	c #6C6C6F",
"= 	c #6B6C6F",
"- 	c #6C6E71",
"; 	c #6B6C70",
"> 	c #6B6D6F",
", 	c #726F6F",
"' 	c #7C716D",
") 	c #6F6E70",
"! 	c #78706E",
"~ 	c #C2825A",
"{ 	c #E48A51",
"] 	c #B27D5E",
"^ 	c #957766",
"/ 	c #F8914B",
"( 	c #FF9149",
"_ 	c #EB8B4F",
": 	c #84736B",
"< 	c #8B7469",
"[ 	c #EF8E4D",
"} 	c #FC9149",
"| 	c #F98E4A",
"1 	c #B97E5C",
"2 	c #7A706E",
"3 	c #75716F",
"4 	c #9E8363",
"5 	c #AC895F",
"6 	c #967F66",
"7 	c #6E6E70",
"8 	c #987865",
"9 	c #B77F5D",
"0 	c #B37D5E",
"a 	c #EB894E",
"b 	c #C98057",
"c 	c #897369",
"d 	c #6F6E6E",
"e 	c #BC915C",
"f 	c #F9AC4A",
"g 	c #FEAE49",
"h 	c #F1A64D",
"i 	c #A68561",
"j 	c #6D6E70",
"k 	c #716E6F",
"l 	c #C68459",
"m 	c #D58855",
"n 	c #9C7764",
"o 	c #DB8452",
"p 	c #DB8352",
"q 	c #997565",
"r 	c #86796A",
"s 	c #EEA84E",
"t 	c #FFAF49",
"u 	c #FFAE49",
"v 	c #FFAC49",
"w 	c #D79954",
"x 	c #76716E",
"y 	c #917767",
"z 	c #EB8E4E",
"A 	c #A77C61",
"B 	c #8B7369",
"C 	c #CC8056",
"D 	c #E8844E",
"E 	c #AB7860",
"F 	c #716E70",
"G 	c #87796A",
"H 	c #EFA94D",
"I 	c #EFA44D",
"J 	c #A58462",
"K 	c #7B736D",
"L 	c #706E70",
"M 	c #C0835A",
"N 	c #DC8A53",
"O 	c #7D716C",
"P 	c #7C706C",
"Q 	c #BC7B5B",
"R 	c #F0844C",
"S 	c #BB7A5B",
"T 	c #7D706D",
"U 	c #766F6E",
"V 	c #786F6D",
"W 	c #716F70",
"X 	c #C0935A",
"Y 	c #FBAE4A",
"Z 	c #F5A74C",
"` 	c #DB9B53",
" .	c #ECA14E",
"..	c #D99853",
"+.	c #AC8560",
"@.	c #83756B",
"#.	c #8B7569",
"$.	c #E88E4F",
"%.	c #AD7E5F",
"&.	c #EA814E",
"*.	c #D97D53",
"=.	c #D87C53",
"-.	c #DF7C51",
";.	c #B1755E",
">.	c #FF6745",
",.	c #FF6547",
"'.	c #FF6446",
").	c #78726E",
"!.	c #A38562",
"~.	c #B58C5D",
"{.	c #9C8164",
"].	c #74706F",
"^.	c #937C66",
"/.	c #C18E5A",
"(.	c #E79C50",
"_.	c #E39951",
":.	c #B7885D",
"<.	c #8C7869",
"[.	c #BA825C",
"}.	c #E28D51",
"|.	c #82736B",
"1.	c #9E7563",
"2.	c #F2824B",
"3.	c #FF8348",
"4.	c #FF8148",
"5.	c #F67E4A",
"6.	c #9A7265",
"7.	c #FF6846",
"8.	c #FF6647",
"9.	c #FF6447",
"0.	c #FF6245",
"a.	c #6F6F70",
"b.	c #887769",
"c.	c #B5885D",
"d.	c #E09751",
"e.	c #EA994F",
"f.	c #C1895A",
"g.	c #957A66",
"h.	c #736F6F",
"i.	c #76706E",
"j.	c #8F7768",
"k.	c #E48F50",
"l.	c #B4815E",
"m.	c #7F706B",
"n.	c #EB804D",
"o.	c #FD7F48",
"p.	c #B6755D",
"q.	c #766C6E",
"r.	c #D26952",
"s.	c #FF6546",
"t.	c #6B6D6E",
"u.	c #80746C",
"v.	c #AB8260",
"w.	c #D89154",
"x.	c #EE974E",
"y.	c #D58E54",
"z.	c #D78D54",
"A.	c #E8914F",
"B.	c #F1934D",
"C.	c #947767",
"D.	c #746E6F",
"E.	c #C77A58",
"F.	c #FD8248",
"G.	c #FE8148",
"H.	c #F77E4A",
"I.	c #EB7B4E",
"J.	c #B4745D",
"K.	c #806F6C",
"L.	c #806D6B",
"M.	c #C36C58",
"N.	c #F66949",
"O.	c #FF6644",
"P.	c #78716E",
"Q.	c #B2835E",
"R.	c #F8994B",
"S.	c #FF9A49",
"T.	c #FF9949",
"U.	c #FE9749",
"V.	c #BF835B",
"W.	c #7E706C",
"X.	c #C37959",
"Y.	c #EA7E4E",
"Z.	c #A37362",
"`.	c #B4745E",
" +	c #E7794F",
".+	c #DA7652",
"++	c #A47161",
"@+	c #8B6D68",
"#+	c #CD6C55",
"$+	c #E46B4F",
"%+	c #AE6A5E",
"&+	c #A67F62",
"*+	c #FD9B49",
"=+	c #FF9749",
"-+	c #E88F4F",
";+	c #86746A",
">+	c #A37463",
",+	c #DC7C53",
"'+	c #776F6E",
")+	c #8E7068",
"!+	c #C47458",
"~+	c #EF774C",
"{+	c #CB7357",
"]+	c #956F66",
"^+	c #966E65",
"/+	c #D96D52",
"(+	c #976D65",
"_+	c #9F7D64",
":+	c #FA9A4A",
"<+	c #FC9449",
"[+	c #C88558",
"}+	c #A27463",
"|+	c #9D7063",
"1+	c #D47454",
"2+	c #EB744D",
"3+	c #BB705B",
"4+	c #856E6A",
"5+	c #A26E62",
"6+	c #E46F4F",
"7+	c #CF6E55",
"8+	c #B6845D",
"9+	c #F9994A",
"0+	c #FB994A",
"a+	c #FD9849",
"b+	c #EE924E",
"c+	c #C68559",
"d+	c #E58C50",
"e+	c #D28755",
"f+	c #8F7568",
"g+	c #7B6E6D",
"h+	c #AE705F",
"i+	c #E37250",
"j+	c #E7714E",
"k+	c #F2704B",
"l+	c #C36F58",
"m+	c #806E6B",
"n+	c #FFBC48",
"o+	c #FFBB49",
"p+	c #FDB849",
"q+	c #817769",
"r+	c #B3845D",
"s+	c #F3994C",
"t+	c #B8855C",
"u+	c #A47E62",
"v+	c #AD8060",
"w+	c #947866",
"x+	c #967865",
"y+	c #D98853",
"z+	c #DD8852",
"A+	c #9A7765",
"B+	c #896E69",
"C+	c #C47059",
"D+	c #EF704C",
"E+	c #986E65",
"F+	c #FDBE47",
"G+	c #FFBD49",
"H+	c #FFBC4A",
"I+	c #FDB949",
"J+	c #AA8C5F",
"K+	c #B3855E",
"L+	c #F39A4C",
"M+	c #B6855D",
"N+	c #8C7569",
"O+	c #CF8556",
"P+	c #E78A4F",
"Q+	c #A47962",
"R+	c #7E6E6C",
"S+	c #D36F54",
"T+	c #CD6F55",
"U+	c #FFBE48",
"V+	c #FFBA4A",
"W+	c #D9A453",
"X+	c #9E8664",
"Y+	c #77726E",
"Z+	c #73706F",
"`+	c #B3865E",
" @	c #F39C4C",
".@	c #B6865D",
"+@	c #81726B",
"@@	c #C58159",
"#@	c #EE8A4D",
"$@	c #AF7B5E",
"%@	c #706E6F",
"&@	c #E86F4E",
"*@	c #B66E5C",
"=@	c #FDBB49",
"-@	c #FFBA48",
";@	c #E6AB50",
">@	c #EDAD4E",
",@	c #D49F56",
"'@	c #A78961",
")@	c #7E756C",
"!@	c #8E7B68",
"~@	c #BB8D5C",
"{@	c #D49755",
"]@	c #CD9357",
"^@	c #B7885C",
"/@	c #F39D4C",
"(@	c #B6875D",
"_@	c #716F6F",
":@	c #BA7E5B",
"<@	c #F2894C",
"[@	c #B87C5C",
"}@	c #786F6E",
"|@	c #AD6E5E",
"1@	c #EE6E4C",
"2@	c #9D6D63",
"3@	c #77726D",
"4@	c #998365",
"5@	c #C69959",
"6@	c #EAA94F",
"7@	c #DDA253",
"8@	c #B08C5F",
"9@	c #85786A",
"0@	c #998065",
"a@	c #E39F51",
"b@	c #FEAA49",
"c@	c #FFA949",
"d@	c #FFA749",
"e@	c #FCA549",
"f@	c #FAA24A",
"g@	c #BA895C",
"h@	c #736E6F",
"i@	c #B07B5E",
"j@	c #F0874C",
"k@	c #C47D59",
"l@	c #81716B",
"m@	c #756E6E",
"n@	c #C76D57",
"o@	c #DA6D52",
"p@	c #866D6A",
"q@	c #8F7D68",
"r@	c #BD925B",
"s@	c #E5A450",
"t@	c #E7A44F",
"u@	c #EAA44F",
"v@	c #FEAC49",
"w@	c #FFAA49",
"x@	c #FFA649",
"y@	c #FCA349",
"z@	c #AE845F",
"A@	c #A67861",
"B@	c #E9844E",
"C@	c #CF7E56",
"D@	c #8B7268",
"E@	c #8A6D69",
"F@	c #DD6C51",
"G@	c #C26C59",
"H@	c #736D6F",
"I@	c #BF925B",
"J@	c #FBAC4A",
"K@	c #FFA449",
"L@	c #D09156",
"M@	c #9C7664",
"N@	c #DF8151",
"O@	c #DA7F52",
"P@	c #977365",
"Q@	c #B5775E",
"R@	c #E07C52",
"S@	c #88716A",
"T@	c #A26D62",
"U@	c #EE6B4C",
"V@	c #AD6B5F",
"W@	c #957F67",
"X@	c #F8AB4B",
"Y@	c #DB9553",
"Z@	c #907367",
"`@	c #DE8052",
" #	c #F0814C",
".#	c #F5814B",
"+#	c #FD8148",
"@#	c #E07B51",
"##	c #A77461",
"$#	c #6F6D70",
"%#	c #BA6C5B",
"&#	c #EB694C",
"*#	c #CD9057",
"=#	c #706F70",
"-#	c #D27E55",
";#	c #FE8448",
">#	c #FF7F48",
",#	c #ED7B4D",
"'#	c #917167",
")#	c #7F6D6C",
"!#	c #D46A53",
"~#	c #B98E5C",
"{#	c #FDAB49",
"]#	c #E69950",
"^#	c #A27F62",
"/#	c #887269",
"(#	c #F1834C",
"_#	c #FF8448",
":#	c #FE7D48",
"<#	c #B0745E",
"[#	c #A06A60",
"}#	c #FB6747",
"|#	c #FF6545",
"1#	c #A88661",
"2#	c #F7A84B",
"3#	c #F1A44D",
"4#	c #FAA74A",
"5#	c #F8A54A",
"6#	c #DD9852",
"7#	c #B3875E",
"8#	c #CB8F57",
"9#	c #F29C4C",
"0#	c #BB875B",
"a#	c #7E736C",
"b#	c #B87A5C",
"c#	c #FA8549",
"d#	c #B5745C",
"e#	c #FD6546",
"f#	c #DC9E53",
"g#	c #C79458",
"h#	c #8E7A68",
"i#	c #967E65",
"j#	c #7F746C",
"k#	c #B1855E",
"l#	c #EC984E",
"m#	c #D28E55",
"n#	c #A57E62",
"o#	c #BA845C",
"p#	c #C78758",
"q#	c #A97E60",
"r#	c #746F6F",
"s#	c #8E7468",
"t#	c #B27B5E",
"u#	c #D38155",
"v#	c #E9854E",
"w#	c #E9834E",
"x#	c #F3834B",
"y#	c #F97D49",
"z#	c #A37262",
"A#	c #C1935A",
"B#	c #E1A051",
"C#	c #8B7A69",
"D#	c #997C65",
"E#	c #D89054",
"F#	c #F5984B",
"G#	c #FE9A49",
"H#	c #FE9849",
"I#	c #FA954A",
"J#	c #B3805E",
"K#	c #967766",
"L#	c #BB805C",
"M#	c #D98654",
"N#	c #E4864F",
"O#	c #C47E59",
"P#	c #A27762",
"Q#	c #84716A",
"R#	c #A47662",
"S#	c #EA804E",
"T#	c #FE8248",
"U#	c #F97E49",
"V#	c #F67C4A",
"W#	c #C27559",
"X#	c #6D6D70",
"Y#	c #A38662",
"Z#	c #F1A84D",
"`#	c #A68661",
" $	c #AC8160",
".$	c #FC9B49",
"+$	c #F4924C",
"@$	c #E28C51",
"#$	c #ED8E4E",
"$$	c #DE8952",
"%$	c #BD7F5B",
"&$	c #9B7764",
"*$	c #7F716C",
"=$	c #907267",
"-$	c #B0765E",
";$	c #B5775D",
">$	c #9D7364",
",$	c #A67361",
"'$	c #EA794E",
")$	c #C77558",
"!$	c #816F6C",
"~$	c #8A7A69",
"{$	c #DEA152",
"]$	c #C49459",
"^$	c #72706F",
"/$	c #A27E63",
"($	c #FB9A49",
"_$	c #EF904D",
":$	c #B6805D",
"<$	c #7A706D",
"[$	c #9F7263",
"}$	c #E4774F",
"|$	c #CB7457",
"1$	c #866F6A",
"2$	c #D8A053",
"3$	c #DDA153",
"4$	c #E3A351",
"5$	c #897A6A",
"6$	c #82746B",
"7$	c #D98F53",
"8$	c #F9954A",
"9$	c #B1805F",
"0$	c #997164",
"a$	c #DE7551",
"b$	c #D67454",
"c$	c #C1715A",
"d$	c #926E67",
"e$	c #FFB349",
"f$	c #FEB249",
"g$	c #D59D55",
"h$	c #8B7768",
"i$	c #B9845C",
"j$	c #C68759",
"k$	c #A77D61",
"l$	c #937066",
"m$	c #E6754F",
"n$	c #FE7548",
"o$	c #FF7448",
"p$	c #D47154",
"q$	c #776E6E",
"r$	c #FFB448",
"s$	c #FDB149",
"t$	c #C79657",
"u$	c #C0725A",
"v$	c #FF7548",
"w$	c #DF7151",
"x$	c #7A6E6D",
"y$	c #926F67",
"z$	c #D47254",
"A$	c #DF7252",
"B$	c #A76F61",
"C$	c #6D6D6F",
"D$	c #6C6E70",
"                                                                                                                                ",
"                                                                                                                                ",
"                                                                                                                                ",
"                                                                                                                                ",
"                                                                                                                                ",
"                                                                                                                                ",
"                                                      . . + @ . . # . . @                                                       ",
"                                              $ . . . % % % % % % % % % % . . & *                                               ",
"                                          = . . % % % % % % % % % % % % % % % % . . &                                           ",
"                                      @ - % % % % % % % % % % % % % % % % % % % % % % . =                                       ",
"                                  * . % % % % % % % % % % % % % % % % % % % % % % % % % % . *                                   ",
"                                * . % % % % % % % % % % % % % % % % % % % % % % % % % % % % . $                                 ",
"                              ; % % % % % % % % % % % % % % % % % % % % % % % % % % % % % % % % >                               ",
"                            ; % % % % % % % % % % % % % % % , ' ) % % % % % % % % % % % % % % % % +                             ",
"                          . % % % % % % % % % % % % % % % ! ~ { ] ) % % % % % % % % % % % % % % % % .                           ",
"                        > % % % % % % % % % % % % % % % % ^ / ( _ : % % % % % % % % % % % % % % % % % .                         ",
"                      @ . % % % % % % % % % % % % % % % % < [ } | 1 2 % % % % % % % % % % % % % % % % . ;                       ",
"                      3 4 5 6 7 % % % % % % % % % % % % % 8 [ 9 0 a b c % % % % % % % % % % % % % % % % -                       ",
"                    d e f g h i j % % % % % % % % % % % k l m ! j n o p q j % % % % % % % % % % % % % % % ;                     ",
"                  $ r s t u v w x % % % % % % % % % % % y z A j % j B C D E F % % % % % % % % % % % % % % . *                   ",
"                  ; G H t u v I J K j % % % % % % % % L M N O % % % % P Q R S T U V j % % % % % % % % % % % .                   ",
"                * . W X Y g Z `  ...+.@.j % % % % % % #.$.%.j % % % % % k E &.*.=.-.;.F % % % % % % % % % % . &   >.,.'.        ",
"                + % % ).!.~.{.].^./.(._.:.<.) j % % 7 [.}.|.% % % % % % % j 1.2.3.4.5.6.% % % % % % % % % % % ;   7.8.9.0.      ",
"                . % % % j ) % % % a.b.c.d.e.f.g.h.i.j.k.l.j % % % % % % % % m.n.3.4.o.p.7 % % % % % % % % % % q.r.>.s.'.        ",
"              t.% % % % % % % % % % % 7 u.v.w.x.y.z.A.B.C.% % % % % % % % % D.E.F.G.H.I.J.K.j % % % % % % % L.M.N.O.            ",
"              . % % % % % % % % % % % % % j P.Q.R.S.T.U.V.L % % % % % % % % % W.X.Y.Z.`. +.+++D.% % % % j @+#+$+%+              ",
"              . % % % % % % % % % % % % % % j &+*+S.T.=+-+;+% % % % % % % % % % >+,+'+7 )+!+~+{+]+) % j ^+/+/+(+.               ",
"              - % % % % % % % % % % % % % % j _+:+S.T.=+<+[+: % % % % % % % % % }+,+'+% % k |+1+2+3+4+5+6+7+@+% .               ",
"              . % % % % % % % % % % % % % % W 8+9+0+a+b+c+d+e+f+% % % % % % % % }+,+'+% % % j g+h+i+j+k+l+m+% % .               ",
"      n+o+p+q+% % % % % % % % % % % % % % W r+s+t+u+v+w+j x+y+z+A+j % % % % % % }+,+'+% % % % % j B+C+D+E+% % % % &             ",
"    F+G+H+I+J+% % % % % % % % % % % % % W K+L+M+, % % % % j N+O+P+Q+7 % % % % % }+,+'+% % % % % % % R+S+T+g+% % % >             ",
"    U+G+H+V+W+X+Y+% % % % % % 7 Z+, j W `+ @.@, % % % % % % % +@@@#@$@%@% % % % }+,+'+% % % % % % % % ^+&@*@7 % % >             ",
"      n+=@-@;@>@,@'@)@j % % !@~@{@]@+.^@/@(@_@% % % % % % % % % ! :@<@[@}@% % % }+,+'+% % % % % % % % j |@1@2@j % &             ",
"            3@4@5@6@7@8@9@0@a@b@c@d@e@f@g@_@% % % % % % % % % % % h@i@j@k@l@% % }+,+'+% % % % % % % % % m@n@o@p@% >             ",
"              . W q@r@s@t@u@v@w@c@d@x@y@z@j % % % % % % % % % % % % 7 A@B@C@D@% }+,+'+% % % % % % % % % % E@F@G@H@              ",
"              . % % ) r I@J@v w@c@d@x@K@L@, % % % % % % % % % % % % % j M@N@O@P@Q@R@S@j % % % % % % % % % j T@U@V@              ",
"              ; % % % % W@X@v w@c@d@x@K@Y@i.% % % % % % % % % % % % % % j Z@`@ #.#+#@###j % % % % % % % % % $#%#&#              ",
"              & % % % % 9@u@v w@c@d@x@K@*#=#% % % % % % % % % % % % % % % h@-#;#3.4.>#,#'#% % % % % % % % % % )#!#>.            ",
"              @ % % % % ) ~#{#w@c@d@x@f@]#^#) % % % % % % % % % % % % % % /#(#_#3.4.>#:#<#j % % % % % % % % % % [#}#|#          ",
"                . % % % j 1#2#3#4#5#6#7#8#9#0#a#% ) L j % % % % % % j h./#b#c#_#3.4.>#:#d#j % % % % % % % % % -   >.e#          ",
"                & % % % 9@f#g#h#i#^.j#j P.k#l#m#n#o#p#q#r#% % 7 U s#t#u#v#w#x#_#3.4.>#y#z#% % % % % % % % % % +                 ",
"                * . % _@A#B#C#% % % % % % j D#E#F#G#H#I#J#' K#L#M#a N#O#P#Q#R#S#T#G.U#V#W#g+% % % % % % % % . X#                ",
"                  . j Y#Z#`#j % % % % % % % j  $.$S.T.=++$@$#$$$%$&$*$) % % j =$-$;$>$,$'$)$!$% % % % % % % .                   ",
"                  X#~${$]$^$% % % % % % % % j /$($S.T.=+_$:$^ <$7 % % % % % % % % % % j [$}$|$1$) L % % % . *                   ",
"                  2$3$4$5$% % % % % % % % % % 6$7$G#T.8$9$j % % % % % % % % % % % % % % j 0$a$b$c$c$d$% % .                     ",
"                  e$f$g$Z+% % % % % % % % % % j h$i$j$k$h.% % % % % % % % % % % % % % % % j l$m$n$o$p$q$%                       ",
"                  r$s$t$=#% % % % % % % % % % % % 7 =#% % % % % % % % % % % % % % % % % % % ) u$v$o$w$x$*                       ",
"                        ; % % % % % % % % % % % % % % % % % % % % % % % % % % % % % % % % % % y$z$A$B$C$                        ",
"                          + % % % % % % % % % % % % % % % % % % % % % % % % % % % % % % % % % % q$g+D$                          ",
"                            . % % % % % % % % % % % % % % % % % % % % % % % % % % % % % % % % % % .                             ",
"                              . % % % % % % % % % % % % % % % % % % % % % % % % % % % % % % % % @                               ",
"                                > . % % % % % % % % % % % % % % % % % % % % % % % % % % % % . >                                 ",
"                                  * . % % % % % % % % % % % % % % % % % % % % % % % % % % j *                                   ",
"                                      = . % % % % % % % % % % % % % % % % % % % % % % . =                                       ",
"                                          & X#% % % % % % % % % % % % % % % % % % . &                                           ",
"                                              * + . % % % % % % % % % % % % - + .                                               ",
"                                                    > = . . . X#X#. . + * *                                                     ",
"                                                                                                                                ",
"                                                                                                                                ",
"                                                                                                                                ",
"                                                                                                                                ",
"                                                                                                                                ",
"                                                                                                                                ",
"                                                                                                                                "};
