/* XPM */
static char * C:\Users\Livio\Desktop\litecoin\share\pixmaps\bitcoin16_xpm[] = {
"16 16 93 2",
"  	c None",
". 	c #6B6D6F",
"+ 	c #6C6C70",
"@ 	c #6C6E71",
"# 	c #6C6D70",
"$ 	c #6B6C70",
"% 	c #6D6D70",
"& 	c #6D6E71",
"* 	c #7E726C",
"= 	c #6C6E70",
"- 	c #917D66",
"; 	c #72706F",
"> 	c #7B716D",
", 	c #AE7D5F",
"' 	c #927566",
") 	c #C79558",
"! 	c #AB8860",
"~ 	c #7C736C",
"{ 	c #917767",
"] 	c #8E7668",
"^ 	c #917466",
"/ 	c #9A7564",
"( 	c #80706B",
"_ 	c #6C6D6F",
": 	c #83786A",
"< 	c #877869",
"[ 	c #937B66",
"} 	c #A88061",
"| 	c #AD7F5F",
"1 	c #6F6E70",
"2 	c #AE775E",
"3 	c #BA775B",
"4 	c #856F6A",
"5 	c #946C66",
"6 	c #E8674C",
"7 	c #6C6D71",
"8 	c #6D6E70",
"9 	c #BE875B",
"0 	c #CE8956",
"a 	c #937766",
"b 	c #84716A",
"c 	c #947266",
"d 	c #927066",
"e 	c #A56F61",
"f 	c #926D65",
"g 	c #E7AE50",
"h 	c #948165",
"i 	c #7A736D",
"j 	c #937D66",
"k 	c #9E7F64",
"l 	c #947A66",
"m 	c #77706E",
"n 	c #927666",
"o 	c #926E66",
"p 	c #926D66",
"q 	c #8A7C68",
"r 	c #AF8A5F",
"s 	c #FBA849",
"t 	c #CA9057",
"u 	c #937466",
"v 	c #B5785D",
"w 	c #A07462",
"x 	c #926C66",
"y 	c #6C6C6F",
"z 	c #A18462",
"A 	c #D19655",
"B 	c #BB8A5B",
"C 	c #997C65",
"D 	c #83746A",
"E 	c #79706D",
"F 	c #917467",
"G 	c #DA7E52",
"H 	c #D87B52",
"I 	c #786F6D",
"J 	c #786C6C",
"K 	c #947F66",
"L 	c #76716E",
"M 	c #6E6E70",
"N 	c #B5845D",
"O 	c #CF8956",
"P 	c #967865",
"Q 	c #897369",
"R 	c #927366",
"S 	c #A97460",
"T 	c #947066",
"U 	c #7C6E6C",
"V 	c #9A8264",
"W 	c #7B726D",
"X 	c #84746A",
"Y 	c #9E7063",
"Z 	c #A8705F",
"` 	c #6D6D71",
" .	c #6B6B6F",
"                                ",
"          . + @ # $ %           ",
"      @ # & & * & & & =         ",
"    - ; & & > , ' & & & .       ",
"    ) ! ~ & { ] ^ / ( & & _     ",
"  @ : < [ } | 1 & 2 3 4 & 5 6   ",
"  7 & & 8 9 0 a & b c d e f     ",
"g h i j k l m n ' ( b & o p     ",
"  q r s t 1 & & u v w & & x     ",
"  y z A B C D E F G H I & J     ",
"    K L M N O P Q R S T U y     ",
"    V & & W X & & & & Y Z       ",
"      # # & & & & & & `         ",
"          # # 8 7 #  .          ",
"                                ",
"                                "};
