/* XPM */
static char * C:\Users\Livio\Desktop\litecoin\share\pixmaps\bitcoin32_xpm[] = {
"32 32 221 2",
"  	c None",
". 	c #6B6D6F",
"+ 	c #6C6D70",
"@ 	c #6D6D70",
"# 	c #6A6C70",
"$ 	c #6C6C70",
"% 	c #6D6E71",
"& 	c #6C6E70",
"* 	c #6C6D6F",
"= 	c #78706E",
"- 	c #977865",
"; 	c #726F6F",
"> 	c #9D7964",
", 	c #F68F4B",
"' 	c #A87B60",
") 	c #6D6E70",
"! 	c #A38662",
"~ 	c #B38C5E",
"{ 	c #85776A",
"] 	c #AE7E5F",
"^ 	c #BC815B",
"/ 	c #B47C5D",
"( 	c #A97960",
"_ 	c #6E6E70",
": 	c #6B6D70",
"< 	c #80766B",
"[ 	c #E1A251",
"} 	c #FEAD49",
"| 	c #BC8F5B",
"1 	c #716F6F",
"2 	c #7B716D",
"3 	c #B8815D",
"4 	c #7A716D",
"5 	c #776F6E",
"6 	c #B27B5D",
"7 	c #B37A5D",
"8 	c #7A6F6D",
"9 	c #726E6F",
"0 	c #706E6F",
"a 	c #BB915B",
"b 	c #DE9F52",
"c 	c #C99357",
"d 	c #B68A5D",
"e 	c #9D7F63",
"f 	c #76716E",
"g 	c #A57D61",
"h 	c #AA7D60",
"i 	c #A67761",
"j 	c #CD7C56",
"k 	c #CB7A56",
"l 	c #957266",
"m 	c #6C6C6F",
"n 	c #F36649",
"o 	c #FF6446",
"p 	c #706F70",
"q 	c #7A736D",
"r 	c #86776A",
"s 	c #AE855F",
"t 	c #B7875D",
"u 	c #A68061",
"v 	c #987A65",
"w 	c #BF845B",
"x 	c #7F726C",
"y 	c #6F6E70",
"z 	c #C67A58",
"A 	c #FE8148",
"B 	c #C67858",
"C 	c #796E6D",
"D 	c #8E6C67",
"E 	c #E9684C",
"F 	c #FF6546",
"G 	c #7D736C",
"H 	c #C68959",
"I 	c #F7974B",
"J 	c #EB914E",
"K 	c #877469",
"L 	c #907267",
"M 	c #CE7A56",
"N 	c #B6755C",
"O 	c #B5735D",
"P 	c #9C7163",
"Q 	c #986D64",
"R 	c #B46C5D",
"S 	c #B8695A",
"T 	c #B9855C",
"U 	c #FD9949",
"V 	c #F8954A",
"W 	c #BB825C",
"X 	c #7C716C",
"Y 	c #766F6E",
"Z 	c #B5775D",
"` 	c #716E6F",
" .	c #856F6A",
"..	c #B2715D",
"+.	c #B4705D",
"@.	c #B26F5D",
"#.	c #B36E5D",
"$.	c #886D69",
"%.	c #6C6D71",
"&.	c #FFBB48",
"*.	c #C69C57",
"=.	c #967B65",
"-.	c #B8855C",
";.	c #B1825E",
">.	c #9B7A64",
",.	c #A57C61",
"'.	c #B57F5D",
").	c #877369",
"!.	c #966F65",
"~.	c #C36F58",
"{.	c #946E66",
"].	c #FFBC49",
"^.	c #E7AD4F",
"/.	c #A18863",
"(.	c #78736E",
"_.	c #84776A",
":.	c #967C65",
"<.	c #B6865D",
"[.	c #8C7868",
"}.	c #9B7864",
"|.	c #B67D5D",
"1.	c #927566",
"2.	c #996E64",
"3.	c #726D6F",
"4.	c #AE8C5F",
"5.	c #B7905D",
"6.	c #A88861",
"7.	c #B28B5E",
"8.	c #ECA24E",
"9.	c #EFA14D",
"0.	c #D79554",
"a.	c #8D7968",
"b.	c #907567",
"c.	c #B57B5C",
"d.	c #9C7663",
"e.	c #AE6D5E",
"f.	c #AB6D5F",
"g.	c #7C756D",
"h.	c #AB8960",
"i.	c #F2A74C",
"j.	c #FFAA49",
"k.	c #FFA749",
"l.	c #EB9D4E",
"m.	c #81756B",
"n.	c #86726A",
"o.	c #B67A5C",
"p.	c #B7795C",
"q.	c #C57959",
"r.	c #85706A",
"s.	c #756D6E",
"t.	c #B36C5D",
"u.	c #AD6A5D",
"v.	c #7B746D",
"w.	c #DE9E52",
"x.	c #ED9D4E",
"y.	c #8A7769",
"z.	c #907367",
"A.	c #ED814D",
"B.	c #D27954",
"C.	c #8C6D68",
"D.	c #D46851",
"E.	c #6C6E6F",
"F.	c #CA9657",
"G.	c #E59F50",
"H.	c #DF9A51",
"I.	c #C99057",
"J.	c #907967",
"K.	c #7C726C",
"L.	c #77706E",
"M.	c #B87A5C",
"N.	c #FC8448",
"O.	c #FF8148",
"P.	c #F37D4B",
"Q.	c #877069",
"R.	c #D26852",
"S.	c #988165",
"T.	c #B48C5D",
"U.	c #7D746C",
"V.	c #79726D",
"W.	c #947B66",
"X.	c #C78A58",
"Y.	c #E6924F",
"Z.	c #CE8956",
"`.	c #9C7964",
" +	c #AA7C60",
".+	c #BA7E5C",
"++	c #B67C5C",
"@+	c #AE795E",
"#+	c #CF7C55",
"$+	c #F27F4B",
"%+	c #DD7A51",
"&+	c #9B7264",
"*+	c #907D67",
"=+	c #B48E5D",
"-+	c #897A69",
";+	c #B0825E",
">+	c #FE9A49",
",+	c #FC9649",
"'+	c #B9815C",
")+	c #7F716C",
"!+	c #786F6D",
"~+	c #867169",
"{+	c #8A7069",
"]+	c #B3735D",
"^+	c #9F7163",
"/+	c #7D6E6C",
"(+	c #EEAB4D",
"_+	c #B88F5C",
":+	c #84756A",
"<+	c #BE855B",
"[+	c #B1815E",
"}+	c #816F6B",
"|+	c #C37359",
"1+	c #E27350",
"2+	c #936F66",
"3+	c #9D8463",
"4+	c #997065",
"5+	c #CE7256",
"6+	c #976E64",
"7+	c #776D6D",
"8+	c #6B6D71",
"                                                                ",
"                                                                ",
"                                                                ",
"                                                                ",
"                        . + + + + + + + @ #                     ",
"                    $ + % % % % % % % % % % + $                 ",
"                & + % % % % % % % % % % % % % % .               ",
"              * + % % % % % % = - ; % % % % % % % $             ",
"            $ @ % % % % % % % > , ' ) % % % % % % % .           ",
"            ! ~ { % % % % % % ] ^ / ( _ % % % % % % % :         ",
"          < [ } | 1 % % % % 2 3 4 5 6 7 8 9 % % % % % +         ",
"          0 a b c d e f % % g h % % _ i j k l % % % % % m n o   ",
"        : % p q _ r s t u v w x % % % y z A B C % % % % D E F   ",
"        + % % % % % ) G H I J K % % % % L M N O P y % Q R S     ",
"        $ % % % % % % ) T U V W X % % % Y Z `  ...+.@.#.$.%.    ",
"    &.*.+ % % % % % % =.-.;.>.,.'.).% % Y Z ` % _ !.~.{.% +     ",
"    ].^./.(.% ) _.{ :.<.[.% % ) }.|.1.% Y Z ` % % % 2.#.3.:     ",
"        4.5.6.7.8.9.0.a.% % % % % b.c.d.Y Z ` % % % ) e.f.:     ",
"        + g.h.i.j.k.l.m.% % % % % % n.o.p.q.r.% % % % s.t.u.    ",
"        + % v.w.j.k.x.y.% % % % % % % z.A.A B.8 % % % % C.D.    ",
"        E.% ) F.G.H.I.t J.K.L.% ) ; n.M.N.O.P.Q.% % % % @ R.    ",
"          $ S.T.U.V.) W.X.Y.Z.`. +.+++@+#+$+%+&+% % % % :       ",
"          *+=+-+% % % ) ;+>+,+'+`.)+y % !+~+{+]+^+/+% +         ",
"          (+_+) % % % % :+<+[+1 % % % % % % % }+|+1+2+:         ",
"            3++ % % % % % y ) % % % % % % % % % 4+5+6+          ",
"              m + % % % % % % % % % % % % % % % % 7+            ",
"                : + % % % % % % % % % % % % % % 8+              ",
"                    + + % % % % % % % % % % + .                 ",
"                        $ + + + % + + + + m                     ",
"                                $ $                             ",
"                                                                ",
"                                                                "};
